<?xml version="1.0" standalone="no"?>
<!DOCTYPE svg PUBLIC "-//W3C//DTD SVG 20010904//EN"
 "http://www.w3.org/TR/2001/REC-SVG-20010904/DTD/svg10.dtd">
<svg version="1.0" xmlns="http://www.w3.org/2000/svg"
 width="700.000000pt" height="700.000000pt" viewBox="0 0 700.000000 700.000000"
 preserveAspectRatio="xMidYMid meet">
<metadata>
Created by potrace 1.11, written by Peter Selinger 2001-2013
</metadata>
<g transform="translate(0.000000,700.000000) scale(0.100000,-0.100000)"
fill="#000000" stroke="none">
<path d="M2430 6985 c-308 -53 -664 -284 -960 -625 -289 -332 -615 -874 -765
-1275 -61 -162 -177 -537 -205 -665 -48 -218 -75 -364 -86 -469 -3 -25 -9 -80
-13 -121 -9 -75 -7 -426 3 -510 11 -100 16 -131 40 -230 51 -216 119 -352 255
-510 116 -136 195 -202 318 -265 86 -45 146 -56 197 -38 105 36 120 187 22
235 -17 9 -62 30 -100 48 -70 33 -191 141 -269 240 -139 178 -203 431 -201
805 0 148 10 280 29 390 2 17 7 48 11 70 33 229 157 674 269 970 25 67 156
335 205 420 12 22 43 76 68 120 75 131 245 382 338 499 258 325 561 557 817
626 94 26 256 32 323 12 121 -35 217 -184 241 -373 30 -236 -45 -713 -164
-1044 -14 -38 -26 -74 -27 -80 -3 -12 0 -3 -78 -210 -33 -88 -66 -173 -73
-190 -8 -16 -44 -104 -80 -195 -37 -91 -73 -178 -80 -195 -26 -59 -207 -478
-215 -499 -4 -12 -19 -46 -33 -76 -14 -30 -37 -84 -52 -120 -15 -36 -36 -85
-47 -110 -25 -56 -29 -64 -126 -295 -70 -165 -113 -263 -204 -465 -12 -25 -30
-65 -40 -90 -30 -68 -192 -473 -231 -575 -96 -253 -126 -326 -232 -560 -63
-139 -144 -325 -180 -412 -36 -87 -93 -215 -126 -285 -95 -202 -157 -352 -203
-493 -44 -131 -52 -164 -63 -243 -15 -115 82 -202 190 -170 90 27 161 173 258
531 73 272 119 383 277 667 13 25 61 110 105 190 44 80 105 185 136 233 64
101 259 395 272 411 6 6 62 81 125 166 117 156 202 262 217 268 4 2 16 20 26
40 16 32 19 59 13 109 -1 7 -16 28 -33 47 -34 39 -94 55 -140 37 -38 -14 -110
-87 -192 -195 -20 -27 -37 -46 -37 -43 0 11 56 148 93 227 59 127 211 475 292
670 42 102 88 210 102 240 75 166 393 915 466 1100 213 536 275 750 332 1135
4 22 8 51 10 65 20 115 25 344 12 450 -12 88 -56 229 -95 305 -74 140 -221
258 -367 295 -69 17 -255 20 -345 5z"/>
<path d="M5499 5499 c-25 -4 -70 -18 -100 -33 -63 -30 -185 -118 -232 -168
-95 -103 -120 -131 -193 -219 -102 -125 -208 -269 -324 -443 -90 -134 -250
-401 -250 -416 0 -4 -7 -13 -15 -20 -12 -10 -13 -7 -4 22 18 64 70 334 88 458
11 83 17 182 17 295 -1 158 -3 173 -25 217 -27 56 -81 111 -129 134 -162 76
-476 -62 -752 -331 -372 -361 -720 -820 -959 -1263 -170 -315 -275 -536 -277
-582 -6 -127 143 -188 228 -94 16 19 50 82 228 429 162 317 308 543 529 825
178 227 456 521 580 613 112 84 278 165 305 149 14 -8 -4 -319 -24 -422 -5
-25 -12 -63 -15 -85 -20 -119 -60 -300 -96 -435 -17 -63 -35 -128 -39 -145 -4
-16 -31 -106 -60 -200 -28 -93 -56 -186 -61 -205 -5 -19 -16 -53 -23 -75 -8
-22 -38 -114 -66 -205 -40 -125 -66 -188 -108 -260 -160 -273 -259 -458 -480
-902 -133 -267 -258 -515 -278 -550 -91 -159 -257 -496 -308 -624 -136 -342
-246 -702 -246 -807 0 -85 57 -147 140 -152 93 -7 176 72 303 283 93 156 377
718 477 942 157 355 503 1244 657 1685 19 55 48 121 64 148 16 26 29 49 29 51
0 3 149 264 169 296 6 8 19 31 29 50 11 19 66 116 122 215 57 99 142 250 190
335 185 330 294 500 466 731 59 79 110 146 113 149 3 3 31 34 61 70 95 113
163 181 223 222 l58 40 -6 -69 c-4 -37 -9 -75 -10 -84 -2 -9 -6 -40 -10 -70
-15 -127 -205 -780 -236 -814 -5 -5 -9 -15 -9 -22 0 -7 -13 -42 -30 -78 -16
-36 -30 -68 -30 -70 0 -3 -44 -94 -98 -203 -91 -182 -154 -301 -332 -617 -37
-66 -100 -183 -140 -260 -71 -137 -229 -412 -305 -529 -78 -122 -89 -177 -49
-244 41 -70 151 -75 211 -10 24 25 234 378 330 553 88 160 131 241 176 325 22
41 55 100 73 131 19 31 34 59 34 63 0 4 10 23 23 44 13 20 47 81 76 135 60
114 210 368 318 542 149 238 242 363 373 498 131 137 143 137 135 -2 -11 -181
-72 -359 -258 -751 -86 -184 -154 -337 -241 -545 -49 -115 -92 -219 -97 -230
-19 -45 -109 -328 -129 -403 -65 -258 -2 -459 169 -535 83 -36 211 -24 311 31
68 37 179 120 230 171 101 103 306 374 380 503 23 40 63 109 90 153 70 116
138 255 145 295 16 97 -101 179 -190 132 -37 -19 -48 -32 -87 -107 -122 -237
-307 -521 -452 -697 -103 -124 -243 -228 -307 -228 -73 0 -53 162 61 494 31
89 142 365 190 471 25 57 70 156 90 200 13 28 38 83 57 123 169 361 230 513
269 660 33 129 39 178 38 307 -1 89 -5 121 -24 169 -58 151 -192 213 -340 157
-71 -27 -102 -48 -171 -117 l-57 -56 8 34 c4 18 19 78 33 133 14 55 28 120 31
145 3 25 9 68 13 95 4 28 7 102 8 165 0 126 -6 147 -67 215 -53 61 -126 87
-209 74z"/>
</g>
</svg>
